<svg width="18" height="18" viewBox="0 0 18 18" fill="none" xmlns="http://www.w3.org/2000/svg">
<path d="M0.430542 0.688614H17.0861V17.3442H0.430542V0.688614Z" fill="#3C82F6"/>
<path d="M8.82247 1.34638C5.32297 3.56942 2.77603 9.64035 2.70361 16.7708H14.9087C14.8371 9.64035 12.3218 3.56942 8.8224 1.34632L8.82247 1.34638ZM8.20943 6.6508L8.80617 7.83107L9.40284 6.65087C9.72782 6.72653 10.0443 6.86352 10.3483 7.05545L10.4835 8.63513L11.1372 7.70398C11.3954 7.96822 11.6407 8.27515 11.8722 8.6199L11.6678 9.76462L12.2655 9.26547C13.0589 10.7064 13.6334 12.6356 13.8768 14.821C13.5503 13.7754 13.013 12.8564 12.3276 12.1424L12.4577 10.9774L11.6241 11.5213C11.4257 11.3739 11.219 11.2417 11.005 11.1258L10.8962 9.79305L10.0402 10.7324C9.80241 10.6649 9.55902 10.6159 9.31033 10.588L8.8061 9.50639L8.30188 10.5891C8.03708 10.6189 7.77749 10.6711 7.52518 10.7456L6.71599 9.85818L6.61329 11.1228C6.39712 11.2394 6.18828 11.3726 5.98805 11.5213L5.15449 10.9774L5.28559 12.1424C4.59985 12.8564 4.06186 13.7751 3.73532 14.8211C3.97871 12.6354 4.55411 10.7065 5.34759 9.26547L5.94449 9.76462L5.7402 8.61994C5.97995 8.26265 6.23509 7.94623 6.50363 7.67558L7.12984 8.56607L7.25791 7.05951C7.5637 6.86553 7.88227 6.72705 8.20943 6.65083V6.6508Z" fill="white"/>
</svg>
